<svg width="18" height="18" viewBox="0 0 18 18" fill="none" xmlns="http://www.w3.org/2000/svg">
<path fill-rule="evenodd" clip-rule="evenodd" d="M13.5 0.000244141H4.5C2.02522 0.000244141 0 2.02457 0 4.50024V13.5002C0 15.975 2.02522 18.0002 4.5 18.0002H13.5C15.9748 18.0002 18 15.975 18 13.5002V4.50024C18 2.02457 15.9748 0.000244141 13.5 0.000244141ZM9 12.7501C6.92865 12.7501 5.24993 11.0707 5.24993 9.00024C5.24993 6.92889 6.92865 5.25017 9 5.25017C11.0704 5.25017 12.7501 6.92889 12.7501 9.00024C12.7501 11.0707 11.0704 12.7501 9 12.7501ZM12.7501 4.12517C12.7501 4.74639 13.2532 5.25017 13.8751 5.25017C14.497 5.25017 15.0001 4.74639 15.0001 4.12517C15.0001 3.50394 14.497 3.00017 13.8751 3.00017C13.2532 3.00017 12.7501 3.50394 12.7501 4.12517Z" fill="white"/>
</svg>
